<?xml version="1.0" encoding="utf-8"?>

<svg version="1.1" id="Ebene_2" xmlns="http://www.w3.org/2000/svg" xmlns:xlink="http://www.w3.org/1999/xlink" x="0px" y="0px" viewBox="0 0 381.821 129.429" enable-background="new 0 0 381.821 129.429" xml:space="preserve">
<g>
&#x9;<g>
&#x9;&#x9;<path fill="#E4002B" d="M76.371,53.415c5.506,5.505,10.456,11.354,14.86,17.471l6.061-6.061L64.961,32.495l-6.062,6.062&#xA;&#x9;&#x9;&#x9;C65.02,42.959,70.866,47.911,76.371,53.415z"></path>
&#x9;&#x9;<path fill="#E4002B" d="M84.487,77.632l5.387-5.388c-4.388-6.132-9.337-11.983-14.843-17.489&#xA;&#x9;&#x9;&#x9;c-5.506-5.507-11.359-10.453-17.489-14.843l-5.387,5.388c6.17,4.329,12.054,9.249,17.567,14.763&#xA;&#x9;&#x9;&#x9;C75.236,65.578,80.157,71.461,84.487,77.632z"></path>
&#x9;&#x9;<path fill="#E4002B" d="M55.71,58.03c3.617,1.233,7.013,3.28,9.889,6.157c2.877,2.878,4.927,6.274,6.161,9.892L71.76,74.08&#xA;&#x9;&#x9;&#x9;c2.501,3.003,4.837,6.098,7.011,9.271l4.013-4.018c-4.309-6.185-9.221-12.076-14.736-17.592&#xA;&#x9;&#x9;&#x9;c-5.519-5.517-11.41-10.431-17.594-14.74l-4.016,4.017C49.612,53.189,52.706,55.527,55.71,58.03z"></path>
&#x9;&#x9;<path fill="#E4002B" d="M66.303,95.815c-4.067-6.349-8.873-12.36-14.422-17.911c-5.549-5.547-11.561-10.355-17.91-14.419&#xA;&#x9;&#x9;&#x9;l-1.341,1.34l0.001,0.001l0.008,0.007C39,68.874,45.022,73.667,50.57,79.218c5.55,5.547,10.342,11.57,14.381,17.93l0.008,0.008&#xA;&#x9;&#x9;&#x9;l0.001,0.002L66.303,95.815z"></path>
&#x9;&#x9;<path fill="#E4002B" d="M69.428,76.414L69.428,76.414c-1.242-3.608-3.3-6.998-6.179-9.877c-2.878-2.879-6.268-4.937-9.875-6.177&#xA;&#x9;&#x9;&#x9;c-3.012-2.496-6.115-4.823-9.3-6.979l-2.689,2.69c3.199,2.139,6.315,4.451,9.336,6.94l0.001-0.001&#xA;&#x9;&#x9;&#x9;c3.588,1.283,6.954,3.357,9.825,6.228c2.873,2.873,4.946,6.239,6.229,9.827l0,0c2.488,3.02,4.801,6.137,6.94,9.339l2.688-2.689&#xA;&#x9;&#x9;&#x9;C74.249,82.527,71.922,79.425,69.428,76.414z"></path>
&#x9;&#x9;<path fill="#E4002B" d="M64.117,81.724l0,0.002c-1.307-3.576-3.39-6.931-6.257-9.798c-2.868-2.866-6.222-4.953-9.798-6.257&#xA;&#x9;&#x9;&#x9;l0.001-0.001c-3.032-2.481-6.163-4.779-9.378-6.898l-1.667,1.667c3.227,2.103,6.367,4.393,9.408,6.869l0,0&#xA;&#x9;&#x9;&#x9;c3.554,1.344,6.886,3.447,9.746,6.308c2.861,2.861,4.962,6.192,6.308,9.747l0-0.002c2.477,3.037,4.766,6.182,6.871,9.406&#xA;&#x9;&#x9;&#x9;l1.666-1.666C68.898,87.886,66.598,84.755,64.117,81.724z"></path>
&#x9;</g>
</g>
<g>
&#x9;<g>
&#x9;&#x9;<polygon points="131.248,74.859 128.977,74.859 118.42,85.666 118.42,74.859 116.73,74.859 116.73,96.859 118.42,96.859 &#xA;&#x9;&#x9;&#x9;118.42,86.464 129.534,96.798 129.6,96.859 132.045,96.859 120.331,85.961 &#x9;&#x9;"></polygon>
&#x9;&#x9;<rect x="134.431" y="71.74" width="1.652" height="25.119"></rect>
&#x9;&#x9;<path d="M145.877,80.3c-1.72,0-3.415,0.436-4.653,1.193l-0.108,0.067v1.642l0.34-0.192c1.402-0.796,2.796-1.167,4.386-1.167&#xA;&#x9;&#x9;&#x9;c2.168,0,3.362,1.207,3.362,3.399v2.13h-1.622c-6.692,0-8.098,2.668-8.098,4.906c0,3.095,2.688,4.87,7.373,4.87&#xA;&#x9;&#x9;&#x9;c1.208,0,2.642-0.207,3.835-0.553l0.164-0.048V85.097C150.855,81.959,149.134,80.3,145.877,80.3z M146.856,95.678&#xA;&#x9;&#x9;&#x9;c-1.721,0-5.722-0.331-5.722-3.399c0-2.287,2.121-3.399,6.483-3.399h1.585v6.558C148.459,95.61,147.784,95.678,146.856,95.678z"></path>
&#x9;&#x9;<path d="M159.547,95.57c-1.544,0-2.203-0.832-2.203-2.783V82.061h4.896V80.59h-4.896v-3.627h-1.651v3.627h-2.431v1.471h2.431&#xA;&#x9;&#x9;&#x9;v10.943c0,2.664,1.333,4.072,3.854,4.072c1.077,0,2.068-0.268,2.946-0.794l0.11-0.066v-1.688l-0.343,0.201&#xA;&#x9;&#x9;&#x9;C161.19,95.358,160.506,95.57,159.547,95.57z"></path>
&#x9;&#x9;<path d="M170.751,95.57c-1.544,0-2.203-0.832-2.203-2.783V82.061h4.896V80.59h-4.896v-3.627h-1.651v3.627h-2.431v1.471h2.431&#xA;&#x9;&#x9;&#x9;v10.943c0,2.664,1.333,4.072,3.854,4.072c1.077,0,2.068-0.268,2.945-0.794l0.11-0.066v-1.688l-0.343,0.201&#xA;&#x9;&#x9;&#x9;C172.394,95.358,171.71,95.57,170.751,95.57z"></path>
&#x9;&#x9;<path d="M194.905,95.57c-5.717,0-9.71-3.993-9.71-9.711s3.844-9.71,9.348-9.71c2.285,0,4.399,0.694,5.8,1.904l0.376,0.325v-2.069&#xA;&#x9;&#x9;&#x9;l-0.101-0.067c-1.622-1.093-3.723-1.671-6.075-1.671c-6.395,0-11.036,4.748-11.036,11.29c0,6.647,4.688,11.29,11.398,11.29&#xA;&#x9;&#x9;&#x9;c1.851,0,4.555-0.411,6.086-1.569l0.09-0.068v-1.878l-0.365,0.278C199.249,95.027,197.349,95.57,194.905,95.57z"></path>
&#x9;&#x9;<path d="M211.217,80.3c-4.661,0-7.917,3.464-7.917,8.424s3.256,8.425,7.917,8.425s7.917-3.465,7.917-8.425&#xA;&#x9;&#x9;&#x9;S215.878,80.3,211.217,80.3z M211.217,95.642c-3.726,0-6.229-2.78-6.229-6.918s2.503-6.917,6.229-6.917s6.229,2.779,6.229,6.917&#xA;&#x9;&#x9;&#x9;S214.942,95.642,211.217,95.642z"></path>
&#x9;&#x9;<path d="M229.182,80.3c-1.979,0-4.146,0.392-6.1,1.102l-0.149,0.055v15.402h1.652V82.485c1.292-0.301,2.811-0.605,4.597-0.605&#xA;&#x9;&#x9;&#x9;c3.379,0,4.886,1.283,4.886,4.161v10.818h1.652V85.75C235.72,82.134,233.519,80.3,229.182,80.3z"></path>
&#x9;&#x9;<polygon points="244.973,94.845 239.398,80.59 237.639,80.59 244.036,96.715 244.094,96.859 245.818,96.859 252.235,80.59 &#xA;&#x9;&#x9;&#x9;250.513,80.59 &#x9;&#x9;"></polygon>
&#x9;&#x9;<path d="M260.712,80.3c-4.186,0-7.591,3.746-7.591,8.352c0,5.082,3.211,8.497,7.99,8.497c2.14,0,4.096-0.614,5.369-1.686&#xA;&#x9;&#x9;&#x9;l0.081-0.068v-1.863l-0.374,0.314c-1.486,1.25-2.957,1.76-5.076,1.76c-3.812,0-6.374-2.795-6.374-6.954l12.477-0.026v-1.207&#xA;&#x9;&#x9;&#x9;C267.214,83.094,264.662,80.3,260.712,80.3z M260.712,81.807c2.926,0,4.768,2.056,4.848,5.384h-10.673&#xA;&#x9;&#x9;&#x9;C255.463,84.055,257.877,81.807,260.712,81.807z"></path>
&#x9;&#x9;<polygon points="276.108,95.465 270.066,80.59 268.305,80.59 275.254,97.613 273.026,103.387 274.712,103.387 283.446,80.59 &#xA;&#x9;&#x9;&#x9;281.761,80.59 &#x9;&#x9;"></polygon>
&#x9;&#x9;<path d="M292.31,80.3c-4.661,0-7.917,3.464-7.917,8.424s3.256,8.425,7.917,8.425s7.917-3.465,7.917-8.425&#xA;&#x9;&#x9;&#x9;S296.971,80.3,292.31,80.3z M292.31,95.642c-3.726,0-6.229-2.78-6.229-6.918s2.503-6.917,6.229-6.917s6.229,2.779,6.229,6.917&#xA;&#x9;&#x9;&#x9;S296.035,95.642,292.31,95.642z"></path>
&#x9;&#x9;<path d="M309.622,80.409c-1.985,0-3.834,0.574-5.496,1.708l-0.1,0.067v14.675h1.652V82.976c0.791-0.472,2.207-0.952,3.943-0.952&#xA;&#x9;&#x9;&#x9;c0.736,0,1.483,0.107,2.223,0.318l0.29,0.083v-1.679l-0.175-0.042C311.214,80.527,310.531,80.409,309.622,80.409z"></path>
&#x9;&#x9;<path d="M319.053,87.713c-2.402-0.909-3.407-1.555-3.407-3.196c0-1.697,1.162-2.71,3.109-2.71c1.706,0,3.03,0.838,3.84,1.54&#xA;&#x9;&#x9;&#x9;l0.377,0.326v-1.991l-0.091-0.067c-1.181-0.885-2.53-1.314-4.126-1.314c-2.826,0-4.726,1.694-4.726,4.217&#xA;&#x9;&#x9;&#x9;c0,2.576,1.729,3.703,4.323,4.604c2.629,0.927,3.802,1.661,3.802,3.558c0,1.911-1.259,2.964-3.545,2.964&#xA;&#x9;&#x9;&#x9;c-1.539,0-3.015-0.643-4.267-1.857l-0.386-0.375v2.008l0.063,0.065c0.956,0.997,2.801,1.666,4.589,1.666&#xA;&#x9;&#x9;&#x9;c3.135,0,5.16-1.755,5.16-4.471C323.77,89.441,321.478,88.602,319.053,87.713z"></path>
&#x9;</g>
</g>
<g>
&#x9;<path d="M133.63,38.844h6.505v25.931h-6.505v-9.997h-10.391v9.997h-6.504V38.844h6.504v10.171h10.391V38.844z"></path>
&#x9;<path d="M157.639,38.407c7.508,0,13.532,5.5,13.532,13.402c0,7.902-6.024,13.402-13.532,13.402c-7.51,0-13.49-5.5-13.49-13.402&#xA;&#x9;&#x9;C144.149,43.908,150.13,38.407,157.639,38.407z M150.043,33.998c0-1.921,1.528-3.449,3.361-3.449s3.405,1.528,3.405,3.449&#xA;&#x9;&#x9;c0,1.833-1.572,3.317-3.405,3.317S150.043,35.832,150.043,33.998z M157.639,44.257c-3.93,0-6.811,3.012-6.811,7.552&#xA;&#x9;&#x9;c0,4.541,2.881,7.553,6.811,7.553c3.973,0,6.81-3.012,6.81-7.553C164.449,47.269,161.612,44.257,157.639,44.257z M158.25,33.998&#xA;&#x9;&#x9;c0-1.921,1.528-3.449,3.362-3.449c1.877,0,3.404,1.528,3.404,3.449c0,1.833-1.527,3.317-3.404,3.317&#xA;&#x9;&#x9;C159.778,37.315,158.25,35.832,158.25,33.998z"></path>
&#x9;<path d="M181.647,64.775h-6.461v-25.8c2.053-0.349,5.5-0.567,8.207-0.567c6.637,0,11.09,2.794,11.09,8.993&#xA;&#x9;&#x9;c0,3.711-2.096,6.33-4.672,7.684l6.941,9.691h-7.641l-5.588-8.294h-1.877V64.775z M181.647,51.154h1.615&#xA;&#x9;&#x9;c2.707,0,4.627-0.917,4.627-3.58c0-2.619-2.008-3.536-4.451-3.536c-0.525,0-1.441,0.043-1.791,0.087V51.154z"></path>
&#x9;<path d="M212.249,64.775l-5.021-16.284l-2.225,16.284h-6.418l3.535-25.931h7.771l5.412,17.549l5.109-17.549h7.814l3.535,25.931&#xA;&#x9;&#x9;h-6.461l-2.27-16.284l-5.021,16.284H212.249z"></path>
&#x9;<path d="M242.325,59.842l-1.789,4.933h-6.854l10.084-25.931h7.814l10.084,25.931h-7.115l-1.746-4.933H242.325z M247.651,45.348&#xA;&#x9;&#x9;l-3.361,9.211h6.637L247.651,45.348z"></path>
&#x9;<path d="M281.133,54.734V38.844h6.287v25.931h-6.156L270.438,49.19v15.585h-6.287V38.844h6.549L281.133,54.734z"></path>
&#x9;<path d="M309.813,54.734V38.844h6.287v25.931h-6.156L299.118,49.19v15.585h-6.287V38.844h6.549L309.813,54.734z"></path>
</g>
</svg>